# xmcd
#
# Track frame offsets: 
#        150
#        16580
#        32209
#        48287
#        64500
#        82339
#        96741
#        115952
#        132304
#        149163
#        166430
#        187656
#        201085
#        216692
#        232941
#        247015
#        256888
#        276495
#        294060
#        312560
#        327706
#
# Disc length: 4651 seconds
#
# Revision: 0
# Processed by: cddbd v1.5.2PL0 Copyright (c) Steve Scherf et al.
# Submitted via: ExactAudioCopy v1.0b1
#
DISCID=4b122915
DTITLE=Lee Kernaghan - Ultimate Hits [CD2]
DYEAR=2011
DGENRE=Country
TTITLE0=Planet Country (2009)
TTITLE1=Fire (Lee and Bobby) (2010)
TTITLE2=Spirit Of The Bush (With Adam Brand and Steve Forde) (2007)
TTITLE3=Baptise The Ute (2002)
TTITLE4=When The Snow Falls On The Alice (1998)
TTITLE5=Something In The Water (2002)
TTITLE6=Hat Town (1998)
TTITLE7=Gettin' Gone (1998)
TTITLE8=Shake On It (1995)
TTITLE9=New Bush, The (2006)
TTITLE10=Close As A Whisper (The Gift) (2006)
TTITLE11=I Milk Cows (2009)
TTITLE12=Something Right (2009)
TTITLE13=Love Shack (Groove Mix) (2006)
TTITLE14=Cowgirls Do (1998)
TTITLE15=Great Balls Of Fire (Live At CMC Rocks The Snowys) (2010)
TTITLE16=Electric Rodeo (2002)
TTITLE17=Missin' Slim (With Colin Buchanan) (2004)
TTITLE18=Texas QLD 4385 (2002)
TTITLE19=Outback Club, The (1993)
TTITLE20=Odyssey, The (2002)
EXTD=
EXTT0=
EXTT1=
EXTT2=
EXTT3=
EXTT4=
EXTT5=
EXTT6=
EXTT7=
EXTT8=
EXTT9=
EXTT10=
EXTT11=
EXTT12=
EXTT13=
EXTT14=
EXTT15=
EXTT16=
EXTT17=
EXTT18=
EXTT19=
EXTT20=
PLAYORDER=
